<?xml version="1.0" standalone="no"?><!DOCTYPE svg PUBLIC "-//W3C//DTD SVG 1.1//EN" "http://www.w3.org/Graphics/SVG/1.1/DTD/svg11.dtd"><svg t="1650167287779" class="icon" viewBox="0 0 3222 1024" version="1.1" xmlns="http://www.w3.org/2000/svg" p-id="1002" xmlns:xlink="http://www.w3.org/1999/xlink" width="629.296875" height="200"><defs><style type="text/css">@font-face { font-family: feedback-iconfont; src: url("//at.alicdn.com/t/font_1031158_u69w8yhxdu.woff2?t=1630033759944") format("woff2"), url("//at.alicdn.com/t/font_1031158_u69w8yhxdu.woff?t=1630033759944") format("woff"), url("//at.alicdn.com/t/font_1031158_u69w8yhxdu.ttf?t=1630033759944") format("truetype"); }
</style></defs><path d="M2234.835222 82.339079H820.222845L762.391739 22.956139H271.460934L22.037893 280.294457l490.930806 494.934355L612.534064 676.196029l1622.301158-0.541765c126.479143 1.625295 230.204161-124.348813 238.394911-275.216559 8.980442-165.366843-99.115426-318.906682-238.394911-318.098626zM105.175846 280.294457L303.131224 82.339079h415.708129l197.955377 197.955378L512.968699 684.092941z" fill="#4CB4E7" p-id="1003"></path><path d="M1880.906654 311.53317q-8.365217 63.597687-54.25913 103.210801-44.075787 37.537878-101.833433 37.537879h-146.129598l-12.37795 94.349731h-86.939489l25.114016-191.27055h241.415939q17.850694 0 31.679472-12.130024t16.454961-32.193689q2.617-20.036118-8.071379-31.642742t-28.566619-11.606624H1516.023416L1586.14983 170.793674h175.825659q57.427077 0 91.705184 37.519513 35.56365 39.622296 27.225981 103.219983z m-535.998297 235.070863L1394.24569 170.793674h86.948672l-49.337333 375.837907z m-222.444987 5.729853q-21.064553 0-36.518626-42.753514L963.891545 170.793674h94.42319l82.642101 232.48141L1277.701964 170.793674H1372.777109l-204.034163 339.346828q-25.24257 42.239296-46.288758 42.239296z" fill="#FFFFFF" p-id="1004"></path><path d="M2174.10246 384.129664H1931.988654V169.985618h324.976286v35.517738h-242.113807v143.117753h242.113807v213.032969H1931.988654V526.154705h242.113806z" fill="#FFFFFF" p-id="1005"></path><path d="M673.643306 220.048366a27.877935 27.877935 0 0 0-20.017753 45.379695l-2.938386 12.231031a55.563039 55.563039 0 0 1-109.436505-8.438677l-2.754737-34.66377a40.953752 40.953752 0 1 0-45.095039 0l-2.754737 34.66377a55.563039 55.563039 0 0 1-109.436506 8.438677L378.31717 265.428061a27.877935 27.877935 0 0 0-20.008571-45.379695 27.96976 27.96976 0 0 0-13.140094 53.487803L370.05296 449.352646h291.680701v-0.091824l24.893638-175.724653a27.96976 27.96976 0 0 0-12.983993-53.487803z" fill="#C2FEFF" p-id="1006"></path><path d="M617.786429 505.778836h-205.227882a43.221818 43.221818 0 0 1-43.240184-43.240183h291.708249a43.258548 43.258548 0 0 1-43.240183 43.240183z" fill="#70C3ED" p-id="1007"></path><path d="M328.630903 247.926301a28.024854 28.024854 0 1 0 28.024854-28.024855A28.015672 28.015672 0 0 0 328.630903 247.926301z" fill="#C2FEFF" p-id="1008"></path><path d="M673.643306 220.048366a27.877935 27.877935 0 0 0-20.017753 45.379695l-2.938386 12.231031a55.563039 55.563039 0 0 1-109.436505-8.438677l-2.754737-34.66377a40.806833 40.806833 0 0 0-22.62557-75.112486v289.9544h145.863306v-0.091825l24.893638-175.724652a27.997307 27.997307 0 0 0-12.983993-53.533716z" fill="#99FFFF" p-id="1009"></path><path d="M647.418213 247.926301a27.978942 27.978942 0 1 0 27.978942-27.978942A27.96976 27.96976 0 0 0 647.418213 247.926301z m-172.832179-48.272169a41.440422 41.440422 0 1 0 20.71562-35.894219 41.43124 41.43124 0 0 0-20.71562 35.894219z" fill="#C2FEFF" p-id="1010"></path><path d="M515.135758 462.538653v43.240183h103.688288a42.175018 42.175018 0 0 0 42.239296-42.239296v-1.037617z" fill="#4CB4E7" p-id="1011"></path><path d="M376.948984 228.578867c-3.314866 17.116097-17.400753 31.964128-37.648068 41.164948a27.547367 27.547367 0 0 0 17.354841 6.161428 28.00649 28.00649 0 0 0 20.293227-47.326376z m318.833223 0.238744c-3.838266 16.877353-18.162897 31.394816-38.410212 40.301797A27.868753 27.868753 0 0 0 703.467922 247.926301a28.254416 28.254416 0 0 0-7.685715-19.10869z m-150.932023-58.841176a24.122311 24.122311 0 0 1 1.377369 7.77754c0 19.485171-24.324325 35.324907-54.286678 35.324907a78.730374 78.730374 0 0 1-15.610174-1.524288 41.422057 41.422057 0 1 0 68.510301-41.578159z" fill="#9CFFFF" p-id="1012"></path><path d="M342.56987 235.69527c0.569312 0.991705 2.323161 1.184537 4.646323 0.5234a17.01509 17.01509 0 0 0 6.547091-3.792354c1.753849-1.662024 2.470081-3.278137 1.900768-4.269842s-2.323161-1.184537-4.646323-0.5234a16.785529 16.785529 0 0 0-6.54709 3.792354c-1.753849 1.662024-2.470081 3.324049-1.900769 4.269842z m337.372601-1.000888c2.323161 1.331456 4.793242 2.0936 6.427719 1.900768s2.277249-1.230449 1.606929-2.754736-2.50681-3.314866-4.885066-4.646323-4.784059-2.084417-6.427719-1.891586-2.277249 1.230449-1.616112 2.754737 2.525175 3.314866 4.894249 4.63714z m-180.370975-64.102722c0 2.231337 7.015396 4.031098 15.692816 4.031098s15.692817-1.836491 15.692817-4.031098-7.015396-4.031098-15.692817-4.031098-15.692817 1.845674-15.692816 4.031098z" fill="#FFFFFF" p-id="1013"></path><path d="M528.496231 380.41077h-23.286707a9.577301 9.577301 0 0 1 0-19.154603h23.286707a9.577301 9.577301 0 1 1 0 19.154603z" fill="#B298E5" p-id="1014"></path><path d="M528.496231 361.210255h-12.515687v19.283157h12.515687a9.623213 9.623213 0 0 0 0-19.283157z" fill="#8F5EDD" p-id="1015"></path></svg>