<?xml version="1.0" standalone="no"?><!DOCTYPE svg PUBLIC "-//W3C//DTD SVG 1.1//EN" "http://www.w3.org/Graphics/SVG/1.1/DTD/svg11.dtd"><svg t="1650076637992" class="icon" viewBox="0 0 3222 1024" version="1.1" xmlns="http://www.w3.org/2000/svg" p-id="21612" xmlns:xlink="http://www.w3.org/1999/xlink" width="629.296875" height="200"><defs><style type="text/css">@font-face { font-family: feedback-iconfont; src: url("//at.alicdn.com/t/font_1031158_u69w8yhxdu.woff2?t=1630033759944") format("woff2"), url("//at.alicdn.com/t/font_1031158_u69w8yhxdu.woff?t=1630033759944") format("woff"), url("//at.alicdn.com/t/font_1031158_u69w8yhxdu.ttf?t=1630033759944") format("truetype"); }
</style></defs><path d="M2533.50188862 82.339079H1118.88951162L1061.05840562 22.956139H570.12760062L320.70455962 280.294457l490.930806 494.934355L911.20073062 676.196029l1622.301158-0.541765c126.479143 1.625295 230.204161-124.348813 238.394911-275.216559 8.980442-165.366843-99.115426-318.906682-238.394911-318.098626zM403.84251262 280.294457L601.79789062 82.339079h415.708129l197.955377 197.955378L811.63536562 684.092941z" fill="#D863F2" p-id="21613"></path><path d="M2179.57332062 311.53317q-8.365217 63.597687-54.25913 103.210801-44.075787 37.537878-101.833433 37.537879h-146.129598l-12.37795 94.349731h-86.939489l25.114016-191.27055h241.415939q17.850694 0 31.679472-12.130024t16.454961-32.193689q2.617-20.036118-8.071379-31.642742t-28.566619-11.606624H1814.69008262L1884.81649662 170.793674h175.825659q57.427077 0 91.705184 37.519513 35.56365 39.622296 27.225981 103.219983z m-535.998297 235.070863L1692.91235662 170.793674h86.948672l-49.337333 375.837907z m-222.444987 5.729853q-21.064553 0-36.518626-42.753514L1262.55821162 170.793674h94.42319l82.642101 232.48141L1576.36863062 170.793674H1671.44377562l-204.034163 339.346828q-25.24257 42.239296-46.288758 42.239296z" fill="#FFFFFF" p-id="21614"></path><path d="M2546.12776462 559.817587h-81.778949V436.065633h-237.8256v-267.944054h82.853297v232.435498h154.972303V168.121579h81.778949z" fill="#FFFFFF" p-id="21615"></path><path d="M497.59538462 221.11353h623.920309V270.88244H497.59538462zM604.44243762 377.398924l209.359987 199.259286 206.605251-199.259286 19.283156 20.660525L813.80242462 619.815752 584.14921062 399.06952 604.44243762 377.398924z" fill="#D863F2" p-id="21616"></path></svg>