<?xml version="1.0" standalone="no"?><!DOCTYPE svg PUBLIC "-//W3C//DTD SVG 1.1//EN" "http://www.w3.org/Graphics/SVG/1.1/DTD/svg11.dtd"><svg t="1650167302346" class="icon" viewBox="0 0 3222 1024" version="1.1" xmlns="http://www.w3.org/2000/svg" p-id="1171" xmlns:xlink="http://www.w3.org/1999/xlink" width="629.296875" height="200"><defs><style type="text/css">@font-face { font-family: feedback-iconfont; src: url("//at.alicdn.com/t/font_1031158_u69w8yhxdu.woff2?t=1630033759944") format("woff2"), url("//at.alicdn.com/t/font_1031158_u69w8yhxdu.woff?t=1630033759944") format("woff"), url("//at.alicdn.com/t/font_1031158_u69w8yhxdu.ttf?t=1630033759944") format("truetype"); }
</style></defs><path d="M693.596782 497.689092c-20.743167 101.346762-82.6421 177.469319-155.009032 187.64348-60.907228 8.558049-115.065351-31.5601-154.265254-60.604207C325.66497 581.249438 293.296814 529.359382 276.869401 497.689092a501.251885 501.251885 0 0 1-115.698941-104.386155c-40.917022-50.63206-71.23749-88.151574-66.11368-134.982097 4.894249-44.87466 39.796762-75.433873 82.6421-112.944203a415.965238 415.965238 0 0 1 99.170521-64.387379h416.727381C821.040083 68.868417 929.264505 167.754281 932.561006 283.085923c3.425056 119.528024-106.672586 226.788288-238.964224 214.603169z" p-id="1172"></path><path d="M258.642226 216.347836a16.133574 16.133574 0 0 1-11.25769-27.382083l77.472378-78.050872a15.940743 15.940743 0 0 1 22.524563-0.918246c0.257109 0.229561 0.495853 0.468305 0.734597 0.716232a16.142757 16.142757 0 0 1 0 22.69903l-78.050873 78.050873a15.545897 15.545897 0 0 1-11.422975 4.885066z m-44.075786 44.268618a16.702887 16.702887 0 0 1-11.257691-4.499403 16.124392 16.124392 0 0 1 0-22.69903l6.565456-6.565456a15.949925 15.949925 0 0 1 22.542928-0.146919l0.156102 0.146919a16.142757 16.142757 0 0 1 0 22.69903l-6.565456 6.565456a16.142757 16.142757 0 0 1-11.441339 4.664687z" fill="#FFFFFF" p-id="1173"></path><path d="M721.943023 236.044203l-3.562793 156.817977L516.972249 577.053056z" fill="#FF8A52" p-id="1174"></path><path d="M721.943023 236.044203L516.972249 577.053056l62.091765-262.61823z" fill="#FF8A52" p-id="1175"></path><path d="M691.934758 285.941667l1.689572 29.264486-24.572251 8.622326z" fill="#FF8B53" p-id="1176"></path><path d="M691.934758 285.941667l-24.948732 12.001469 3.002663 25.885343z" fill="#FFA47B" p-id="1177"></path><path d="M516.972249 577.053056L315.472444 392.86218l-3.562793-156.817977z m-62.082582-263.536475l62.082582 262.618229-205.062598-340.090607z" fill="#FF8A52" p-id="1178"></path><path d="M364.809778 323.828479l-24.572251-8.622326 1.689571-29.264486z" fill="#FF8B53" p-id="1179"></path><path d="M364.809778 323.828479l3.002663-25.885343-25.885343-12.001469z" fill="#FFA47B" p-id="1180"></path><path d="M644.479827 165.330113L684.092941 330.770415 516.972249 577.053056z" fill="#FFCB71" p-id="1181"></path><path d="M644.479827 165.330113L516.972249 577.053056l-3.369961-292.800961z" fill="#FFCB71" p-id="1182"></path><path d="M626.656681 222.353162l10.504729 32.827279-27.942212 23.63564z" fill="#FF8741" p-id="1183"></path><path d="M626.656681 222.353162l-28.511524 18.759757 11.074041 37.510331z" fill="#FFE971" p-id="1184"></path><path d="M1321.943035 370.906928l2.846561 11.817821-40.953751 60.35628 5.05035-33.332314z" fill="#FFB259" p-id="1185"></path><path d="M516.972249 577.053056L349.851558 330.770415l39.576383-165.440302z" fill="#FFCB71" p-id="1186"></path><path d="M520.305481 284.252095L516.972249 577.053056 389.382029 165.330113z" fill="#FFCB71" p-id="1187"></path><path d="M424.642658 278.816081L396.682081 255.180441l10.504729-32.827279z" fill="#FF8741" p-id="1188"></path><path d="M424.642658 278.816081l11.064859-37.519513-28.511524-18.750575z" fill="#FFE971" p-id="1189"></path><path d="M496.293359 441.060889L516.972249 577.053056 349.851558 330.770415l11.624988-48.207892z" fill="#FFB259" p-id="1190"></path><path d="M516.972249 113.75226L423.145918 272.250626 516.972249 577.053056z" fill="#FFFCB0" p-id="1191"></path><path d="M516.972249 113.75226v463.300796l94.6803-301.432469z" fill="#FFD96F" p-id="1192"></path><path d="M516.972249 189.525883l-34.507668 49.897464L516.972249 281.442264z" fill="#FF8BA5" p-id="1193"></path><path d="M516.972249 189.525883l32.64363 49.897464L516.972249 281.442264z" fill="#F05A57" p-id="1194"></path><path d="M2234.835222 82.339079H820.222845L762.391739 22.956139H271.460934L22.037893 280.294457l490.930806 494.934355L612.534064 676.196029l1622.301158-0.541765c126.479143 1.625295 230.204161-124.348813 238.394911-275.216559 8.980442-165.366843-99.115426-318.906682-238.394911-318.098626zM105.175846 280.294457L303.131224 82.339079h415.708129l197.955377 197.955378L512.968699 684.092941z" fill="#FCC12D" p-id="1195"></path><path d="M1880.906654 311.53317q-8.365217 63.597687-54.25913 103.210801-44.075787 37.537878-101.833433 37.537879h-146.129598l-12.37795 94.349731h-86.939489l25.114016-191.27055h241.415939a46.646874 46.646874 0 0 0 31.679472-12.130024q13.828778-12.130024 16.454961-32.193689t-8.043832-31.642742q-10.688378-11.606624-28.566619-11.606624H1516.023416L1586.14983 170.793674h175.825659q57.427077 0 91.705184 37.519513 35.56365 39.622296 27.225981 103.219983z m-535.998297 235.070863L1394.24569 170.793674h86.948672l-49.337333 375.837907z m-222.444987 5.729853q-21.064553 0-36.518626-42.753514L963.891545 170.793674h94.42319l82.642101 232.48141L1277.701964 170.793674H1372.777109l-204.034163 339.346828q-25.24257 42.239296-46.288758 42.239296zM2010.232358 348.483372H2257.047582v221.554288h-331.27545V170.793674H2257.047582v36.19724h-246.815224zM2172.56899 533.84042V384.671429h-162.336632v149.168991z" fill="#FFFFFF" p-id="1196"></path></svg>