<?xml version="1.0" standalone="no"?><!DOCTYPE svg PUBLIC "-//W3C//DTD SVG 1.1//EN" "http://www.w3.org/Graphics/SVG/1.1/DTD/svg11.dtd"><svg t="1650076611869" class="icon" viewBox="0 0 3222 1024" version="1.1" xmlns="http://www.w3.org/2000/svg" p-id="21253" xmlns:xlink="http://www.w3.org/1999/xlink" width="629.296875" height="200"><defs><style type="text/css">@font-face { font-family: feedback-iconfont; src: url("//at.alicdn.com/t/font_1031158_u69w8yhxdu.woff2?t=1630033759944") format("woff2"), url("//at.alicdn.com/t/font_1031158_u69w8yhxdu.woff?t=1630033759944") format("woff"), url("//at.alicdn.com/t/font_1031158_u69w8yhxdu.ttf?t=1630033759944") format("truetype"); }
</style></defs><path d="M2512.16855529 82.339079H1097.55617829L1039.72507229 22.956139H548.79426729L299.37122629 280.294457l490.930806 494.934355L889.86739729 676.196029l1622.301158-0.541765c126.479143 1.625295 230.204161-124.348813 238.394911-275.216559 8.980442-165.366843-99.115426-318.906682-238.394911-318.098626zM382.50917929 280.294457L580.46455729 82.339079h415.708129l197.955377 197.955378L790.30203229 684.092941z" fill="#9EC4F6" p-id="21254"></path><path d="M2158.23998729 311.53317q-8.365217 63.597687-54.25913 103.210801-44.075787 37.537878-101.833433 37.537879h-146.129598l-12.37795 94.349731h-86.939489l25.114016-191.27055h241.415939q17.850694 0 31.679472-12.130024t16.454961-32.193689q2.617-20.036118-8.071379-31.642742t-28.566619-11.606624H1793.35674929L1863.48316329 170.793674h175.825659q57.427077 0 91.705184 37.519513 35.56365 39.622296 27.225981 103.219983z m-535.998297 235.070863L1671.57902329 170.793674h86.948672l-49.337333 375.837907z m-222.444987 5.729853q-21.064553 0-36.518626-42.753514L1241.22487829 170.793674h94.42319l82.642101 232.48141L1555.03529729 170.793674H1650.11044229l-204.034163 339.346828q-25.24257 42.239296-46.288758 42.239296z" fill="#FFFFFF" p-id="21255"></path><path d="M2229.16527429 557.824994h-21.523676V342.615783h244.253318V201.646725h-239.946747v-35.508556h322.818409v211.986169h-244.253319v144.164553h244.253319v35.508556z" fill="#FFFFFF" p-id="21256"></path><path d="M903.18195829 288.439295L789.71435429 137.819476 677.26600329 289.247351 562.54958629 187.322094l58.602431 317.575226h337.124674L1016.87912329 187.322094z m0 0" fill="#A4D8E4" p-id="21257"></path><path d="M903.18195829 288.439295L789.71435429 137.819476l-0.229561 0.220379v366.87583h168.791898L1016.87912329 187.322094z m0 0" fill="#95D3E8" p-id="21258"></path><path d="M604.14611029 412.733013l42.110741-71.907809L562.54958629 187.322094z m0 0" fill="#B5D3D8" p-id="21259"></path><path d="M677.26600329 289.247351l-31.009152 51.577853L562.54958629 187.322094z m0 0" fill="#85C6D8" p-id="21260"></path><path d="M934.74205829 340.825204l40.540541 71.907809L1016.87912329 187.322094z m0 0" fill="#B5D3D8" p-id="21261"></path><path d="M903.18195829 288.439295l31.5601 52.385909L1016.87912329 187.322094z m0 0" fill="#85C6D8" p-id="21262"></path><path d="M767.18979129 302.102789c0 16.721252 4.22393 32.138595 11.074041 40.512994s15.279606 8.365217 22.129718 0 11.074041-23.791742 11.074042-40.512994-4.22393-32.138595-11.074042-40.512994-15.288789-8.356035-22.129718 0-11.074041 23.837655-11.074041 40.512994z m0 0" fill="#F7F7F7" p-id="21263"></path><path d="M769.51295229 282.819632a10.477182 10.477182 0 1 0 10.477182-10.477182A10.477182 10.477182 0 0 0 769.51295229 282.819632z m0 0" fill="#FFFFFF" p-id="21264"></path></svg>