<?xml version="1.0" standalone="no"?><!DOCTYPE svg PUBLIC "-//W3C//DTD SVG 1.1//EN" "http://www.w3.org/Graphics/SVG/1.1/DTD/svg11.dtd"><svg t="1650076626305" class="icon" viewBox="0 0 3222 1024" version="1.1" xmlns="http://www.w3.org/2000/svg" p-id="21437" xmlns:xlink="http://www.w3.org/1999/xlink" width="629.296875" height="200"><defs><style type="text/css">@font-face { font-family: feedback-iconfont; src: url("//at.alicdn.com/t/font_1031158_u69w8yhxdu.woff2?t=1630033759944") format("woff2"), url("//at.alicdn.com/t/font_1031158_u69w8yhxdu.woff?t=1630033759944") format("woff"), url("//at.alicdn.com/t/font_1031158_u69w8yhxdu.ttf?t=1630033759944") format("truetype"); }
</style></defs><path d="M2554.83522195 82.339079H1140.22284495L1082.39173895 22.956139H591.46093395L342.03789295 280.294457l490.930806 494.934355L932.53406395 676.196029l1622.301158-0.541765c126.479143 1.625295 230.204161-124.348813 238.394911-275.216559 8.980442-165.366843-99.115426-318.906682-238.394911-318.098626zM425.17584595 280.294457L623.13122395 82.339079h415.708129l197.955377 197.955378L832.96869895 684.092941z" fill="#F04C7C" p-id="21438"></path><path d="M2200.90665395 311.53317q-8.365217 63.597687-54.25913 103.210801-44.075787 37.537878-101.833433 37.537879h-146.129598l-12.37795 94.349731h-86.939489l25.114016-191.27055h241.415939q17.850694 0 31.679472-12.130024t16.454961-32.193689q2.617-20.036118-8.071379-31.642742t-28.566619-11.606624H1836.02341595L1906.14982995 170.793674h175.825659q57.427077 0 91.705184 37.519513 35.56365 39.622296 27.225981 103.219983z m-535.998297 235.070863L1714.24568995 170.793674h86.948672l-49.337333 375.837907z m-222.444987 5.729853q-21.064553 0-36.518626-42.753514L1283.89154495 170.793674h94.42319l82.642101 232.48141L1597.70196395 170.793674H1692.77710895l-204.034163 339.346828q-25.24257 42.239296-46.288758 42.239296z" fill="#FFFFFF" p-id="21439"></path><path d="M2580.18798195 556.906749h-327.124981v-35.508556h244.253319V379.354787h-204.438191v-35.508555h204.456556V200.728479h-244.253319v-35.508556h327.12498z" fill="#FFFFFF" p-id="21440"></path><path d="M909.92685895 154.926391a14.581739 14.581739 0 0 0-12.644242 7.345964l-54.608063 93.661047a15.050045 15.050045 0 0 1-25.756788 0l-54.378502-93.661047a15.050045 15.050045 0 0 0-12.855438-7.345964h-55.094733a5.702305 5.702305 0 0 0-5.004438 8.796792l88.472959 151.914545a15.013315 15.013315 0 0 1-25.756788 14.976585L654.24138295 162.529464a15.059227 15.059227 0 0 0-13.773683-7.603073h-33.414956a14.747024 14.747024 0 0 0-12.855438 22.111353l178.598761 306.44609a5.739035 5.739035 0 0 0 10.256803 0l147.378412-253.187848a14.848031 14.848031 0 0 1 25.756788 14.737841L799.74657395 514.382797a14.691929 14.691929 0 0 0 0 14.737841l18.594473 31.863121a15.059227 15.059227 0 0 0 25.76597 0L1067.80081795 177.037744a14.747024 14.747024 0 0 0-12.855438-22.111353z m0 0" fill="#1CCCA9" p-id="21441"></path></svg>