<?xml version="1.0" standalone="no"?><!DOCTYPE svg PUBLIC "-//W3C//DTD SVG 1.1//EN" "http://www.w3.org/Graphics/SVG/1.1/DTD/svg11.dtd"><svg t="1650076486507" class="icon" viewBox="0 0 3222 1024" version="1.1" xmlns="http://www.w3.org/2000/svg" p-id="19855" data-spm-anchor-id="a313x.7781069.0.i36" xmlns:xlink="http://www.w3.org/1999/xlink" width="629.296875" height="200"><defs><style type="text/css">@font-face { font-family: feedback-iconfont; src: url("//at.alicdn.com/t/font_1031158_u69w8yhxdu.woff2?t=1630033759944") format("woff2"), url("//at.alicdn.com/t/font_1031158_u69w8yhxdu.woff?t=1630033759944") format("woff"), url("//at.alicdn.com/t/font_1031158_u69w8yhxdu.ttf?t=1630033759944") format("truetype"); }
</style></defs><path d="M2512.16855529 82.339079H1097.55617829L1039.72507229 22.956139H548.79426729L299.37122629 280.294457l490.930806 494.934355L889.86739729 676.196029l1622.301158-0.541765c126.479143 1.625295 230.204161-124.348813 238.394911-275.216559 8.980442-165.366843-99.115426-318.906682-238.394911-318.098626zM382.50917929 280.294457L580.46455729 82.339079h415.708129l197.955377 197.955378L790.30203229 684.092941z" fill="#b9f5d8" p-id="19856" data-spm-anchor-id="a313x.7781069.0.i22" class=""></path><path d="M2158.23998729 311.53317q-8.365217 63.597687-54.25913 103.210801-44.075787 37.537878-101.833433 37.537879h-146.129598l-12.37795 94.349731h-86.939489l25.114016-191.27055h241.415939q17.850694 0 31.679472-12.130024t16.454961-32.193689q2.617-20.036118-8.071379-31.642742t-28.566619-11.606624H1793.35674929L1863.48316329 170.793674h175.825659q57.427077 0 91.705184 37.519513 35.56365 39.622296 27.225981 103.219983z m-535.998297 235.070863L1671.57902329 170.793674h86.948672l-49.337333 375.837907z m-222.444987 5.729853q-21.064553 0-36.518626-42.753514L1241.22487829 170.793674h94.42319l82.642101 232.48141L1555.03529729 170.793674H1650.11044229l-204.034163 339.346828q-25.24257 42.239296-46.288758 42.239296z" fill="#87c38f" p-id="19857" data-spm-anchor-id="a313x.7781069.0.i37" class=""></path><path d="M577.18642029 276.612292L725.43716529 255.354907l66.646263-134.265865 66.11368 134.477062 148.177286 21.909339-107.58165 104.248418 25.132381 147.837535-132.447739-70.043771-132.759943 69.474459 25.444585-147.488602z m0 0" fill="#87c38f" p-id="19858" data-spm-anchor-id="a313x.7781069.0.i44" class=""></path><path d="M898.80192729 381.723861l25.123198 147.828352L791.73449529 346.729523l-66.352424-91.365433 66.646262-134.275048-0.550947 338.428583-132.759943 69.474459 199.415388-273.435163 148.177286 21.918522-322.148089 104.028039-106.975608-104.89119" fill="#5da867" p-id="19859" data-spm-anchor-id="a313x.7781069.0.i43" class="selected"></path><path d="M2414.81616129 544.565528h-79.823087V202.932268h-57.307705v-33.975085h137.130792z" fill="#87c38f" p-id="19860" data-spm-anchor-id="a313x.7781069.0.i41" class=""></path></svg>