<?xml version="1.0" standalone="no"?><!DOCTYPE svg PUBLIC "-//W3C//DTD SVG 1.1//EN" "http://www.w3.org/Graphics/SVG/1.1/DTD/svg11.dtd"><svg t="1652354922731" class="icon" viewBox="0 0 1024 1024" version="1.1" xmlns="http://www.w3.org/2000/svg" p-id="703" xmlns:xlink="http://www.w3.org/1999/xlink" width="200" height="200"><defs><style type="text/css">@font-face { font-family: feedback-iconfont; src: url("//at.alicdn.com/t/font_1031158_u69w8yhxdu.woff2?t=1630033759944") format("woff2"), url("//at.alicdn.com/t/font_1031158_u69w8yhxdu.woff?t=1630033759944") format("woff"), url("//at.alicdn.com/t/font_1031158_u69w8yhxdu.ttf?t=1630033759944") format("truetype"); }
</style></defs><path d="M838.4 981.333333H183.466667c-76.8 0-138.666667-61.866667-138.666667-138.666666V526.933333c0-76.8 61.866667-138.666667 138.666667-138.666666h654.933333c76.8 0 138.666667 61.866667 138.666667 138.666666v119.466667c0 17.066667-14.933333 32-32 32s-32-14.933333-32-32v-119.466667c0-40.533333-34.133333-74.666667-74.666667-74.666666H183.466667c-40.533333 0-74.666667 34.133333-74.666667 74.666666v315.733334c0 40.533333 34.133333 74.666667 74.666667 74.666666h654.933333c40.533333 0 74.666667-34.133333 74.666667-74.666666v-21.333334c0-17.066667 14.933333-32 32-32s32 14.933333 32 32v23.466667c0 74.666667-61.866667 136.533333-138.666667 136.533333z" p-id="704" fill="#cdcdcd"></path><path d="M808.533333 401.066667h-64v-64c8.533333-128-87.466667-238.933333-215.466666-249.6S290.133333 177.066667 279.466667 305.066667v98.133333h-64v-64C211.2 174.933333 341.333333 38.4 505.6 34.133333S806.4 157.866667 810.666667 322.133333v14.933334l-2.133334 64zM460.8 802.133333c-12.8 0-27.733333-4.266667-36.266667-14.933333l-72.533333-70.4c-12.8-12.8-14.933333-32-2.133333-44.8 12.8-12.8 32-14.933333 44.8-2.133333l2.133333 2.133333 66.133333 61.866667 168.533334-160c12.8-12.8 32-14.933333 44.8-2.133334 12.8 12.8 14.933333 32 2.133333 44.8 0 2.133333-2.133333 2.133333-4.266667 4.266667L497.066667 789.333333c-8.533333 8.533333-23.466667 14.933333-36.266667 12.8z" p-id="705" fill="#cdcdcd"></path></svg>