<?xml version="1.0" standalone="no"?><!DOCTYPE svg PUBLIC "-//W3C//DTD SVG 1.1//EN" "http://www.w3.org/Graphics/SVG/1.1/DTD/svg11.dtd"><svg t="1652357670093" class="icon" viewBox="0 0 1024 1024" version="1.1" xmlns="http://www.w3.org/2000/svg" p-id="3378" xmlns:xlink="http://www.w3.org/1999/xlink" width="200" height="200"><defs><style type="text/css">@font-face { font-family: feedback-iconfont; src: url("//at.alicdn.com/t/font_1031158_u69w8yhxdu.woff2?t=1630033759944") format("woff2"), url("//at.alicdn.com/t/font_1031158_u69w8yhxdu.woff?t=1630033759944") format("woff"), url("//at.alicdn.com/t/font_1031158_u69w8yhxdu.ttf?t=1630033759944") format("truetype"); }
</style></defs><path d="M909.6 160.8H114.4c-27.6 0-50 22.4-50 50v601.9c0 27.6 22.4 50 50 50h795.1c27.6 0 50-22.4 50-50V210.8c0.1-27.6-22.3-50-49.9-50zM245.4 788.1c6.7-29.6 21.3-57.6 41.3-78.7 17.5-18.4 47.7-40.3 91.5-40.3 43.9 0 74 21.9 91.5 40.3 20.1 21 34.7 49 41.3 78.7H245.4z m642.2 2.6H584.8c-7.1-49.5-29.3-95.8-62.9-131-38.5-40.4-89.5-62.6-143.6-62.6s-105.1 22.2-143.6 62.6c-33.6 35.2-55.8 81.5-62.9 131h-35.4V232.8h751.2v557.9z" p-id="3379" fill="#a1b3cc"></path><path d="M378.3 566.3c73.4 0 133.2-59.8 133.2-133.2s-59.8-133.2-133.2-133.2-133.2 59.8-133.2 133.2 59.8 133.2 133.2 133.2z m0-194.4c33.7 0 61.2 27.5 61.2 61.2s-27.5 61.2-61.2 61.2-61.2-27.5-61.2-61.2 27.5-61.2 61.2-61.2zM654 635h140.3c19.9 0 36-16.1 36-36s-16.1-36-36-36H654c-19.9 0-36 16.1-36 36s16.1 36 36 36zM654 466.9h140.3c19.9 0 36-16.1 36-36s-16.1-36-36-36H654c-19.9 0-36 16.1-36 36s16.1 36 36 36z" p-id="3380" fill="#a1b3cc"></path></svg>